# xmcd
# Track frame offsets:
# 150
# 20795
# 40330
# 62157
# 80772
# 101690
# 119082
# 138095
# 157065
# 178932
# 196540
# 217084
# 234372
# 256960
# 274132
#
# Disc length: 3926 seconds
# Revision: 0
# Processed by: cddbd v1.5.2PL0 Copyright (c) Steve Scherf et al.
# Submitted via: VisiTrax 2.10.3.257 - For more info visit www.synapsa.com
#
DISCID=e00f540f
DTITLE=Sound Choice Various Artists CD+G - CDG+ Country Hits - Vol. 91
DYEAR=1900
DGENRE=
TTITLE0=SHANIA TWAIN - DON'T BE STUPID (YOU KNOW I LOVE YOU
TTITLE1=LORRIE MORGAN - ONE OF THOSE NIGHTS TONIGHT
TTITLE2=TRAVIS TRITT - STILL IN LOVE WITH YOU
TTITLE3=DIAMOND RIO - IMAGINE THAT
TTITLE4=KENNY CHESNEY - A CHANCE
TTITLE5=SAMMY KERSHAW - LOVE OF MY LIFE
TTITLE6=LEE ANN WOMACK - YOU'VE GOT TO TALK TO ME
TTITLE7=DAVID LEE MURPHY - JUST DON'T WAIT AROUND TIL SHE'S LEAVIN'
TTITLE8=DEANA CARTER - DID I SHAVE MY LEGS FOR THIS?
TTITLE9=PATTY LOVELESS - YOU DON'T SEEM TO MISS ME
TTITLE10=COLLIN RAYE - THE GIFT
TTITLE11=BROOKS and DUNN - HE'S GOT YOU
TTITLE12=GARTH BROOKS - LONGNECK BOTTLE
TTITLE13=RHETT ATKINS - MORE THAN EVERYTHING
TTITLE14=TOBY KEITH and STING - I'M SO HAPPY I CAN'T STOP CRYING
EXTD=
EXTT0=
EXTT1=
EXTT2=
EXTT3=
EXTT4=
EXTT5=
EXTT6=
EXTT7=
EXTT8=
EXTT9=
EXTT10=
EXTT11=
EXTT12=
EXTT13=
EXTT14=
PLAYORDER=
